:SAMPLES-PER-SECOND 30
:FULLY-SPECIFIED
:DEGREES
48
root  -18.2396 49.1112 3.27224 149.556 77.4226 163.573
RightUpLeg  -39.5532 -6.78645 -5.21509
RightLeg  16.3888 1.98638 -2.15687
RightFoot  27.3242 -3.8862 10.5486
RightToes  -1.74624e-010 -1.59028e-015 9.93923e-017
Spine  42.8744 -1.30811 -4.93145
Spine1  23.8328 -3.85632 2.52391
HEad  -7.28375 -2.86285 11.2024
LeftShoulder1  9.93923e-017 0 1.22299e-017
LeftArm  -7.19571 9.64808 -63.8508
LeftForeArm  -14.8363 -5.27018 -4.35789
LeftHand  0.325691 4.61756 13.9749
RightShoulder  1.98785e-016 -4.96962e-017 1.55301e-017
RightArm  84.5239 -60.59 21.8454
RightForeArm  -52.3852 25.9609 -23.5271
RightHand  0.791864 -11.2662 5.7449
LeftUpLeg  -47.3644 -11.3741 8.85431
LeftLeg  141.545 9.13096 -18.4948
LeftFoot  36.9003 3.0749 -6.29874
LeftToes  2.64666e-010 -8.50449e-011 8.41596e-012
49
root  -15.1301 47.6046 3.48717 137.194 77.3468 153.104
RightUpLeg  -28.8137 -4.3044 -8.05418
RightLeg  14.2447 3.05121 -1.8108
RightFoot  30.1952 -4.20405 10.5797
RightToes  -1.74624e-010 -1.59028e-015 9.93923e-017
Spine  42.1833 0.202167 -6.12058
Spine1  24.4573 -2.57941 -0.0409826
HEad  -5.16308 -3.44248 12.1594
LeftShoulder1  9.93923e-017 0 1.22299e-017
LeftArm  -5.86273 20.1397 -63.337
LeftForeArm  -17.359 -8.72345 -3.20857
LeftHand  0.42258 4.87998 12.7478
RightShoulder  1.98785e-016 -4.96962e-017 1.55301e-017
RightArm  94.4915 -67.5558 13.1127
RightForeArm  -48.8668 24.8782 -23.01
RightHand  0.721761 -10.7962 7.02653
LeftUpLeg  -60.4763 -9.82916 4.19731
LeftLeg  139.933 7.68164 -18.3731
LeftFoot  35.1955 2.70245 -5.72816
LeftToes  2.64666e-010 -8.50449e-011 8.41596e-012
50
root  -11.8953 45.7655 3.7022 128.338 75.8595 147.005
RightUpLeg  -16.7774 -2.92434 -10.4422
RightLeg  11.9608 2.61226 -2.95731
RightFoot  35.2536 -4.91624 10.92
RightToes  -1.74624e-010 -1.59028e-015 9.93923e-017
Spine  41.8791 1.56077 -7.37915
Spine1  24.2071 -1.82463 -0.907613
HEad  -2.36898 -5.29671 12.5378
LeftShoulder1  9.93923e-017 0 1.22299e-017
LeftArm  -2.43782 30.6081 -62.3823
LeftForeArm  -18.9853 -11.3705 -2.36645
LeftHand  0.445401 4.80653 10.8209
RightShoulder  1.98785e-016 -4.96962e-017 1.55301e-017
RightArm  102.945 -72.9059 4.75668
RightForeArm  -48.1576 22.4897 -21.5647
RightHand  0.673371 -10.8534 8.31602
LeftUpLeg  -69.6959 -10.7135 -2.86429
LeftLeg  134.365 2.87752 -17.4644
LeftFoot  31.3887 1.73388 -3.98376
LeftToes  2.64666e-010 -8.50449e-011 8.41596e-012
51
root  -8.66132 43.6133 3.9076 124.306 74.451 145.169
RightUpLeg  -5.3083 -3.21849 -11.8002
RightLeg  10.7993 1.2162 -3.62769
RightFoot  38.0226 -5.60994 11.7625
RightToes  -1.74624e-010 -1.59028e-015 9.93923e-017
Spine  40.3346 2.75392 -8.71654
Spine1  23.2179 -1.3021 -0.576971
HEad  1.62405 -8.11439 12.123
LeftShoulder1  9.93923e-017 0 1.22299e-017
LeftArm  4.95385 42.2525 -60.1863
LeftForeArm  -24.4986 -15.5418 0.879109
LeftHand  0.48638 4.7881 8.68815
RightShoulder  1.98785e-016 -4.96962e-017 1.55301e-017
RightArm  108.297 -75.8092 -1.3068
RightForeArm  -48.4472 20.7061 -20.15
RightHand  0.648465 -10.8927 8.97094
LeftUpLeg  -75.1575 -12.3633 -7.67107
LeftLeg  126.449 -3.90577 -13.9065
LeftFoot  24.5745 0.79074 -2.02903
LeftToes  2.64666e-010 -8.50449e-011 8.41596e-012
52
root  -5.55123 41.2186 3.95429 123.225 75.9624 144.291
RightUpLeg  1.51781 -3.10738 -10.6254
RightLeg  14.2547 2.44554 -2.49758
RightFoot  27.4435 -4.32805 11.6047
RightToes  -1.74624e-010 -1.59028e-015 9.93923e-017
Spine  36.4152 3.30195 -7.83987
Spine1  22.314 -0.356233 0.186334
HEad  3.91003 -10.3726 10.7568
LeftShoulder1  9.93923e-017 0 1.22299e-017
LeftArm  21.0145 55.993 -56.121
LeftForeArm  -42.07 -23.304 10.698
LeftHand  0.579709 5.12369 7.70346
RightShoulder  1.98785e-016 -4.96962e-017 1.55301e-017
RightArm  103.609 -76.1089 2.61663
RightForeArm  -46.036 20.1667 -18.0699
RightHand  0.6654 -10.5764 8.35589
LeftUpLeg  -77.1889 -11.8523 -8.62154
LeftLeg  117.592 -9.22624 -8.99499
LeftFoot  13.2911 -0.337025 1.73758
LeftToes  2.64666e-010 -8.50449e-011 8.41596e-012
53
root  -2.57333 39.0134 3.80138 122.203 81.4483 142.266
RightUpLeg  2.90281 -0.950304 -5.46068
RightLeg  22.9692 5.76333 -1.59973
RightFoot  4.47197 -1.33599 7.90297
RightToes  -1.74624e-010 -1.59028e-015 9.93923e-017
Spine  31.3366 3.13676 -3.32811
Spine1  22.7422 1.19777 0.729506
HEad  1.28281 -10.6282 8.17588
LeftShoulder1  9.93923e-017 0 1.22299e-017
LeftArm  28.1711 67.6278 -52.2309
LeftForeArm  -53.5145 -27.519 18.3873
LeftHand  0.621331 5.4429 9.28275
RightShoulder  1.98785e-016 -4.96962e-017 1.55301e-017
RightArm  79.8247 -73.1522 23.0931
RightForeArm  -40.9521 19.7049 -14.0868
RightHand  0.748047 -11.0348 6.64021
LeftUpLeg  -74.3461 -7.9997 -6.76986
LeftLeg  107.828 -11.7283 -5.7006
LeftFoot  3.28743 -0.812569 5.30994
LeftToes  2.64666e-010 -8.50449e-011 8.41596e-012
54
root  0.151487 37.4218 3.60586 119.164 87.9699 138.39
RightUpLeg  1.92346 3.41415 1.48443
RightLeg  33.0209 5.25166 -3.30963
RightFoot  -14.9787 0.0803609 1.09344
RightToes  -1.74624e-010 -1.59028e-015 9.93923e-017
Spine  27.5389 2.63855 1.84496
Spine1  24.375 2.22361 1.41728
HEad  -3.46199 -8.76279 4.63604
LeftShoulder1  9.93923e-017 0 1.22299e-017
LeftArm  12.4557 72.825 -60.3481
LeftForeArm  -48.5623 -24.205 13.7706
LeftHand  0.67205 5.73627 10.3536
RightShoulder  1.98785e-016 -4.96962e-017 1.55301e-017
RightArm  45.3364 -64.4247 45.9957
RightForeArm  -32.2289 18.4356 -7.9108
RightHand  1.01845 -13.1376 3.38307
LeftUpLeg  -66.002 -2.38418 -4.62689
LeftLeg  93.91 -12.7043 -4.03648
LeftFoot  3.1554 -0.505033 3.77493
LeftToes  2.64666e-010 -8.50449e-011 8.41596e-012
55
root  2.66434 36.5758 3.50914 -65.5818 88.1864 -47.4172
RightUpLeg  1.69225 5.86076 5.80393
RightLeg  39.7719 3.30424 -6.03033
RightFoot  -22.4832 -0.13063 -1.90821
RightToes  -1.74624e-010 -1.59028e-015 9.93923e-017
Spine  25.1408 2.22513 3.35988
Spine1  24.9943 1.73421 2.95868
HEad  -3.92643 -6.01466 1.44564
LeftShoulder1  9.93923e-017 0 1.22299e-017
LeftArm  -24.7123 71.2959 -74.8147
LeftForeArm  -22.7411 -12.9958 0.575
LeftHand  0.849548 6.40001 6.73262
RightShoulder  1.98785e-016 -4.96962e-017 1.55301e-017
RightArm  23.404 -53.753 61.3127
RightForeArm  -30.2289 17.6267 -7.53124
RightHand  1.48019 -14.894 -1.43323
LeftUpLeg  -53.6784 2.05186 -3.86045
LeftLeg  73.047 -12.6908 -1.45316
LeftFoot  11.2461 0.0578069 -0.150112
LeftToes  2.64666e-010 -8.50449e-011 8.41596e-012
56
root  5.33765 36.1318 3.49436 -64.9216 87.3554 -49.4069
RightUpLeg  2.80045 4.00339 5.69316
RightLeg  41.6591 4.75846 -5.16748
RightFoot  -25.1278 -0.0314825 -0.364028
RightToes  -1.74624e-010 -1.59028e-015 9.93923e-017
Spine  21.8634 2.06743 1.54977
Spine1  22.8561 0.611489 4.50705
HEad  0.831842 -3.863 0.0761962
LeftShoulder1  9.93923e-017 0 1.22299e-017
LeftArm  -34.2327 68.1263 -81.7502
LeftForeArm  -14.3643 -5.49158 -2.1631
LeftHand  0.902981 6.48822 2.17195
RightShoulder  1.98785e-016 -4.96962e-017 1.55301e-017
RightArm  22.671 -47.3741 73.5515
RightForeArm  -40.6851 20.6444 -17.7367
RightHand  1.62716 -14.3273 -4.19107
LeftUpLeg  -41.1264 2.9685 -3.9937
LeftLeg  50.2385 -10.7357 0.989834
LeftFoot  17.2853 0.159062 -0.437048
LeftToes  2.64666e-010 -8.50449e-011 8.41596e-012
57
root  8.24632 35.6965 3.46237 -53.7672 87.3965 -42.4523
RightUpLeg  3.85823 0.452494 3.18878
RightLeg  41.7308 8.90022 -1.11125
RightFoot  -29.4791 0.234793 1.66125
RightToes  -1.74624e-010 -1.59028e-015 9.93923e-017
Spine  17.3059 1.78684 0.166523
Spine1  19.0353 0.33133 4.32607
HEad  4.86791 -2.99874 0.465184
LeftShoulder1  9.93923e-017 0 1.22299e-017
LeftArm  -21.4504 66.6784 -80.3508
LeftForeArm  -16.9041 -10.9437 -1.33621
LeftHand  0.833127 6.07014 1.89229
RightShoulder  1.98785e-016 -4.96962e-017 1.55301e-017
RightArm  14.7026 -44.8716 83.0214
RightForeArm  -35.8403 27.0668 -25.5443
RightHand  1.45636 -13.3859 -3.51379
LeftUpLeg  -33.3727 -1.08638 -3.49546
LeftLeg  36.0999 -7.8828 2.18468
LeftFoot  15.0766 -0.625962 2.7456
LeftToes  2.64666e-010 -8.50449e-011 8.41596e-012
58
root  10.9414 35.3239 3.37159 -40.1222 87.5248 -32.3648
RightUpLeg  4.02515 -1.55147 0.776599
RightLeg  43.9039 12.3505 2.36723
RightFoot  -31.0972 0.395529 2.45709
RightToes  -1.74624e-010 -1.59028e-015 9.93923e-017
Spine  14.4341 1.44721 0.456473
Spine1  15.7324 0.904211 2.27678
HEad  3.77846 -3.1882 1.24325
LeftShoulder1  9.93923e-017 0 1.22299e-017
LeftArm  2.49321 62.7048 -76.9041
LeftForeArm  -32.5389 -20.4506 5.35378
LeftHand  0.779249 5.82459 3.31423
RightShoulder  1.98785e-016 -4.96962e-017 1.55301e-017
RightArm  8.08444 -42.1459 89.5033
RightForeArm  -30.1993 33.9209 -30.796
RightHand  1.53795 -13.8766 -3.77107
LeftUpLeg  -31.961 -7.43539 -2.92807
LeftLeg  35.7368 -4.86746 4.55114
LeftFoot  7.11667 -1.0343 5.77124
LeftToes  2.64666e-010 -8.50449e-011 8.41596e-012
59
root  13.1584 35.1662 3.26923 -38.8235 88.4282 -32.5223
RightUpLeg  3.42369 -1.52985 -0.631657
RightLeg  49.0936 13.1268 3.62668
RightFoot  -24.0296 0.401452 4.66346
RightToes  -1.74624e-010 -1.59028e-015 9.93923e-017
Spine  15.2161 1.28557 1.20165
Spine1  13.0266 1.39709 -0.10637
HEad  0.368426 -3.78837 1.93666
LeftShoulder1  9.93923e-017 0 1.22299e-017
LeftArm  6.12079 51.9375 -74.5703
LeftForeArm  -33.6235 -20.1604 5.64696
LeftHand  0.767266 5.74644 3.10802
RightShoulder  1.98785e-016 -4.96962e-017 1.55301e-017
RightArm  7.68107 -37.146 92.4789
RightForeArm  -29.7014 36.123 -32.7174
RightHand  1.82906 -14.6431 -6.39964
LeftUpLeg  -32.5975 -10.595 -3.82563
LeftLeg  41.9771 -4.19987 6.70011
LeftFoot  -0.3878 -0.709013 6.102
LeftToes  2.64666e-010 -8.50449e-011 8.41596e-012
60
root  14.9145 35.2533 3.26179 139.028 89.4388 144.47
RightUpLeg  0.816655 -0.838389 -1.88402
RightLeg  55.7458 12.8369 3.95612
RightFoot  -11.3925 -0.186015 10.4462
RightToes  -1.74624e-010 -1.59028e-015 9.93923e-017
Spine  17.7752 1.30512 0.21449
Spine1  10.2195 1.38081 -2.14615
HEad  -0.835662 -4.06954 3.02432
LeftShoulder1  9.93923e-017 0 1.22299e-017
LeftArm  -7.50204 37.6657 -74.407
LeftForeArm  -20.4445 -13.5914 -1.43875
LeftHand  0.849774 6.19369 2.4627
RightShoulder  1.98785e-016 -4.96962e-017 1.55301e-017
RightArm  11.5493 -32.1565 93.2509
RightForeArm  -31.5825 34.2562 -30.9484
RightHand  1.90512 -14.6508 -7.3798
LeftUpLeg  -31.908 -11.2357 -5.96452
LeftLeg  45.168 -4.91261 6.9776
LeftFoot  -4.68396 -0.399665 5.08521
LeftToes  2.64666e-010 -8.50449e-011 8.41596e-012
